M48
;DRILL file {KiCad 4.0.7-e2-6376~58~ubuntu16.04.1} date Tue Dec 26 20:47:49 2017
;FORMAT={-:-/ absolute / metric / decimal}
FMAT,2
METRIC,TZ
T1C0.400
T2C0.900
T3C1.100
T4C4.000
%
G90
G05
M71
T1
X108.712Y-124.079
X123.58Y-104.78
X127.4Y-107.15
X128.75Y-102.
X130.1Y-122.72
X134.35Y-121.5
T2
X102.76Y-112.16
X102.76Y-114.7
X106.6Y-112.16
X106.6Y-114.7
X110.4Y-112.16
X110.4Y-114.7
X114.2Y-112.16
X114.2Y-114.7
X118.Y-112.16
X118.Y-114.7
X121.7Y-112.16
X121.7Y-114.7
X125.4Y-112.16
X125.4Y-114.7
X129.1Y-112.16
X129.1Y-114.7
T3
X111.5Y-102.8
X111.5Y-109.3
X116.Y-102.8
X116.Y-109.3
T4
X160.9Y-114.
X179.1Y-114.
T0
M30
