G04 #@! TF.FileFunction,Copper,L1,Top,Signal*
%FSLAX46Y46*%
G04 Gerber Fmt 4.6, Leading zero omitted, Abs format (unit mm)*
G04 Created by KiCad (PCBNEW 4.0.7-e2-6376~58~ubuntu16.04.1) date Tue Dec 26 20:47:44 2017*
%MOMM*%
%LPD*%
G01*
G04 APERTURE LIST*
%ADD10C,0.100000*%
%ADD11C,24.000000*%
%ADD12C,3.400000*%
%ADD13R,1.800000X1.800000*%
%ADD14C,1.800000*%
%ADD15R,1.300000X1.500000*%
%ADD16C,2.000000*%
%ADD17R,0.600000X1.500000*%
%ADD18R,1.800000X0.800000*%
%ADD19C,13.000000*%
%ADD20C,4.000000*%
%ADD21C,0.600000*%
%ADD22C,0.400000*%
%ADD23C,0.254000*%
G04 APERTURE END LIST*
D10*
D11*
X144500000Y-114000000D03*
D12*
X184000000Y-107000000D03*
X105000000Y-107000000D03*
X184000000Y-121000000D03*
D13*
X129100000Y-114700000D03*
D14*
X129100000Y-112160000D03*
D13*
X125400000Y-114700000D03*
D14*
X125400000Y-112160000D03*
D13*
X121700000Y-114700000D03*
D14*
X121700000Y-112160000D03*
D13*
X118000000Y-114700000D03*
D14*
X118000000Y-112160000D03*
D13*
X114200000Y-114700000D03*
D14*
X114200000Y-112160000D03*
D13*
X110400000Y-114700000D03*
D14*
X110400000Y-112160000D03*
D13*
X106600000Y-114700000D03*
D14*
X106600000Y-112160000D03*
D13*
X102760000Y-114700000D03*
D14*
X102760000Y-112160000D03*
D15*
X131400000Y-105000000D03*
X131400000Y-102300000D03*
X129899996Y-117600000D03*
X129899996Y-120300000D03*
X126828568Y-117600000D03*
X126828568Y-120300000D03*
X123757140Y-117600000D03*
X123757140Y-120300000D03*
X120685712Y-117600000D03*
X120685712Y-120300000D03*
X117614284Y-117600000D03*
X117614284Y-120300000D03*
X114542856Y-117600000D03*
X114542856Y-120300000D03*
X111471428Y-117600000D03*
X111471428Y-120300000D03*
X108400000Y-117600000D03*
X108400000Y-120300000D03*
X131400000Y-107100000D03*
X131400000Y-109800000D03*
D16*
X111500000Y-102800000D03*
X116000000Y-102800000D03*
X111500000Y-109300000D03*
X116000000Y-109300000D03*
D17*
X127390000Y-103100000D03*
X126120000Y-103100000D03*
X124850000Y-103100000D03*
X123580000Y-103100000D03*
X122310000Y-103100000D03*
X121040000Y-103100000D03*
X119770000Y-103100000D03*
X119770000Y-108500000D03*
X121040000Y-108500000D03*
X122310000Y-108500000D03*
X123580000Y-108500000D03*
X124850000Y-108500000D03*
X126120000Y-108500000D03*
X127390000Y-108500000D03*
D18*
X134350000Y-123050000D03*
X134350000Y-124950000D03*
X137650000Y-124000000D03*
D12*
X105000000Y-121000000D03*
D19*
X170000000Y-114000000D03*
D20*
X160900000Y-114000000D03*
X179100000Y-114000000D03*
D21*
X108712000Y-124079000D03*
X130100000Y-122720002D03*
X127400000Y-107150000D03*
X134350000Y-121500000D03*
X128750000Y-102000000D03*
X123580000Y-104780000D03*
D22*
X139200000Y-126350000D02*
X161813000Y-126350000D01*
X161813000Y-126350000D02*
X170000000Y-118163000D01*
X170000000Y-118163000D02*
X170000000Y-114000000D01*
X130100000Y-122720002D02*
X110070998Y-122720002D01*
X110070998Y-122720002D02*
X108712000Y-124079000D01*
X131400000Y-109800000D02*
X131400000Y-118699996D01*
X131400000Y-118699996D02*
X129899996Y-120200000D01*
X129899996Y-120200000D02*
X129899996Y-120300000D01*
X130100000Y-122720002D02*
X133729998Y-126350000D01*
X129899996Y-122519998D02*
X130100000Y-122720002D01*
X129899996Y-120300000D02*
X129899996Y-122519998D01*
X133729998Y-126350000D02*
X139200000Y-126350000D01*
X137650000Y-124000000D02*
X137650000Y-124800000D01*
X137650000Y-124800000D02*
X139200000Y-126350000D01*
X131400000Y-109800000D02*
X128240000Y-109800000D01*
X128240000Y-109800000D02*
X127390000Y-108950000D01*
X127390000Y-108950000D02*
X127390000Y-108500000D01*
X127390000Y-108500000D02*
X127390000Y-107160000D01*
X127390000Y-107160000D02*
X127400000Y-107150000D01*
X131400000Y-109700000D02*
X131400000Y-109800000D01*
X137150000Y-124000000D02*
X137650000Y-124000000D01*
X126828568Y-120300000D02*
X129899996Y-120300000D01*
X123757140Y-120300000D02*
X126828568Y-120300000D01*
X120685712Y-120300000D02*
X123757140Y-120300000D01*
X117614284Y-120300000D02*
X120685712Y-120300000D01*
X114542856Y-120300000D02*
X117614284Y-120300000D01*
X111471428Y-120300000D02*
X114542856Y-120300000D01*
X108400000Y-120300000D02*
X111471428Y-120300000D01*
X134350000Y-121500000D02*
X134350000Y-123050000D01*
X128040000Y-102000000D02*
X128750000Y-102000000D01*
X127390000Y-103100000D02*
X127390000Y-102650000D01*
X127390000Y-102650000D02*
X128040000Y-102000000D01*
X123580000Y-108500000D02*
X123580000Y-110280000D01*
X123580000Y-110280000D02*
X121700000Y-112160000D01*
X122310000Y-108500000D02*
X122310000Y-109625998D01*
X122310000Y-109625998D02*
X119775998Y-112160000D01*
X119775998Y-112160000D02*
X119272792Y-112160000D01*
X119272792Y-112160000D02*
X118000000Y-112160000D01*
X124850000Y-108500000D02*
X124850000Y-111610000D01*
X124850000Y-111610000D02*
X125400000Y-112160000D01*
X124860000Y-111620000D02*
X125400000Y-112160000D01*
X123580000Y-103100000D02*
X123580000Y-104780000D01*
X129100000Y-114700000D02*
X129100000Y-116800004D01*
X129100000Y-116800004D02*
X129899996Y-117600000D01*
X126120000Y-108500000D02*
X126120000Y-109180000D01*
X126120000Y-109180000D02*
X126130000Y-109190000D01*
X126130000Y-109190000D02*
X129100000Y-112160000D01*
X125400000Y-114700000D02*
X125400000Y-116071432D01*
X125400000Y-116071432D02*
X126828568Y-117500000D01*
X126828568Y-117500000D02*
X126828568Y-117600000D01*
X121700000Y-114700000D02*
X123000000Y-114700000D01*
X123000000Y-114700000D02*
X123757140Y-115457140D01*
X123757140Y-115457140D02*
X123757140Y-116450000D01*
X123757140Y-116450000D02*
X123757140Y-117600000D01*
X118000000Y-114900000D02*
X118085712Y-114900000D01*
X118085712Y-114900000D02*
X120685712Y-117500000D01*
X120685712Y-117500000D02*
X120685712Y-117600000D01*
X118000000Y-114700000D02*
X118000000Y-114900000D01*
X114200000Y-114700000D02*
X114814284Y-114700000D01*
X114814284Y-114700000D02*
X117614284Y-117500000D01*
X117614284Y-117500000D02*
X117614284Y-117600000D01*
X121040000Y-108500000D02*
X121040000Y-108950000D01*
X121040000Y-108950000D02*
X119130001Y-110859999D01*
X119130001Y-110859999D02*
X115500001Y-110859999D01*
X115500001Y-110859999D02*
X115099999Y-111260001D01*
X115099999Y-111260001D02*
X114200000Y-112160000D01*
X110400000Y-114700000D02*
X111700000Y-114700000D01*
X111700000Y-114700000D02*
X114542856Y-117542856D01*
X114542856Y-117542856D02*
X114542856Y-117600000D01*
X119770000Y-108500000D02*
X119070000Y-108500000D01*
X119070000Y-108500000D02*
X117770000Y-107200000D01*
X117770000Y-107200000D02*
X116027998Y-107200000D01*
X116027998Y-107200000D02*
X111967997Y-111260001D01*
X111967997Y-111260001D02*
X111299999Y-111260001D01*
X111299999Y-111260001D02*
X110400000Y-112160000D01*
X106600000Y-114700000D02*
X107900000Y-114700000D01*
X107900000Y-114700000D02*
X110800000Y-117600000D01*
X110800000Y-117600000D02*
X111471428Y-117600000D01*
X106600000Y-112160000D02*
X112160010Y-106599990D01*
X112160010Y-106599990D02*
X117550010Y-106599990D01*
X117550010Y-106599990D02*
X119770000Y-104380000D01*
X119770000Y-104380000D02*
X119770000Y-103100000D01*
X102760000Y-114700000D02*
X102760000Y-116000000D01*
X102760000Y-116000000D02*
X104360000Y-117600000D01*
X104360000Y-117600000D02*
X107350000Y-117600000D01*
X107350000Y-117600000D02*
X108400000Y-117600000D01*
X102760000Y-112160000D02*
X104060001Y-110859999D01*
X111911477Y-105999981D02*
X116500020Y-105999980D01*
X120650000Y-101450000D02*
X121040000Y-101840000D01*
X104060001Y-110859999D02*
X107051459Y-110859999D01*
X107051459Y-110859999D02*
X111911477Y-105999981D01*
X116500020Y-105999980D02*
X118400000Y-104100000D01*
X119000000Y-101450000D02*
X120650000Y-101450000D01*
X118400000Y-104100000D02*
X118400000Y-102050000D01*
X118400000Y-102050000D02*
X119000000Y-101450000D01*
X121040000Y-101840000D02*
X121040000Y-103100000D01*
X121040000Y-102650000D02*
X121040000Y-103100000D01*
X131400000Y-105000000D02*
X131400000Y-107100000D01*
X131400000Y-102400000D02*
X128000000Y-105800000D01*
X131400000Y-102300000D02*
X131400000Y-102400000D01*
X128000000Y-105800000D02*
X123563998Y-105800000D01*
X123563998Y-105800000D02*
X122310000Y-104546002D01*
X122310000Y-104546002D02*
X122310000Y-104250000D01*
X122310000Y-104250000D02*
X122310000Y-103100000D01*
X122310000Y-103100000D02*
X122310000Y-103550000D01*
X116000000Y-102800000D02*
X117950010Y-100849990D01*
X124319990Y-100849990D02*
X126120000Y-102650000D01*
X117950010Y-100849990D02*
X124319990Y-100849990D01*
X126120000Y-102650000D02*
X126120000Y-103100000D01*
X130650000Y-100650000D02*
X132100000Y-100650000D01*
X134350000Y-124950000D02*
X133850000Y-124950000D01*
X133850000Y-124950000D02*
X132000010Y-123100010D01*
X132000010Y-123100010D02*
X132000010Y-111350000D01*
X132000010Y-111350000D02*
X132450001Y-110900009D01*
X132450001Y-110900009D02*
X132450001Y-101000001D01*
X132450001Y-101000001D02*
X132100000Y-100650000D01*
X127110002Y-105150000D02*
X130000000Y-102260002D01*
X130000000Y-102260002D02*
X130000000Y-101300000D01*
X124850000Y-103100000D02*
X124850000Y-104250000D01*
X124850000Y-104250000D02*
X125750000Y-105150000D01*
X125750000Y-105150000D02*
X127110002Y-105150000D01*
X130000000Y-101300000D02*
X130650000Y-100650000D01*
D23*
G36*
X127598741Y-111839609D02*
X127567186Y-111988067D01*
X127562983Y-112289067D01*
X127617324Y-112585150D01*
X127728140Y-112865040D01*
X127891210Y-113118075D01*
X127977611Y-113207546D01*
X127927366Y-113223106D01*
X127777441Y-113321900D01*
X127660975Y-113458550D01*
X127587190Y-113622237D01*
X127561928Y-113800000D01*
X127561928Y-115600000D01*
X127569992Y-115701121D01*
X127623106Y-115872634D01*
X127721900Y-116022559D01*
X127858550Y-116139025D01*
X128022237Y-116212810D01*
X128200000Y-116238072D01*
X128265000Y-116238072D01*
X128265000Y-116800004D01*
X128272525Y-116876751D01*
X128279249Y-116953604D01*
X128280473Y-116957818D01*
X128280902Y-116962190D01*
X128303212Y-117036085D01*
X128324715Y-117110096D01*
X128326734Y-117113990D01*
X128328004Y-117118198D01*
X128364223Y-117186315D01*
X128399710Y-117254778D01*
X128402451Y-117258211D01*
X128404511Y-117262086D01*
X128453269Y-117321870D01*
X128501380Y-117382137D01*
X128507400Y-117388242D01*
X128507508Y-117388374D01*
X128507631Y-117388475D01*
X128509566Y-117390438D01*
X128611924Y-117492796D01*
X128611924Y-118350000D01*
X128619988Y-118451121D01*
X128673102Y-118622634D01*
X128771896Y-118772559D01*
X128908546Y-118889025D01*
X129041600Y-118949002D01*
X128949211Y-118987270D01*
X128845207Y-119056763D01*
X128756759Y-119145211D01*
X128687266Y-119249215D01*
X128639399Y-119364777D01*
X128614996Y-119487458D01*
X128614996Y-120014250D01*
X128773746Y-120173000D01*
X129772996Y-120173000D01*
X129772996Y-120153000D01*
X130026996Y-120153000D01*
X130026996Y-120173000D01*
X130046996Y-120173000D01*
X130046996Y-120427000D01*
X130026996Y-120427000D01*
X130026996Y-121526250D01*
X130185746Y-121685000D01*
X130612538Y-121685000D01*
X130735219Y-121660597D01*
X130850781Y-121612730D01*
X130954785Y-121543237D01*
X131043233Y-121454789D01*
X131112726Y-121350785D01*
X131160593Y-121235223D01*
X131165010Y-121213017D01*
X131165010Y-123100010D01*
X131172535Y-123176757D01*
X131179259Y-123253610D01*
X131180483Y-123257824D01*
X131180912Y-123262196D01*
X131203222Y-123336091D01*
X131224725Y-123410102D01*
X131226744Y-123413996D01*
X131228014Y-123418204D01*
X131264233Y-123486321D01*
X131299720Y-123554784D01*
X131302461Y-123558217D01*
X131304521Y-123562092D01*
X131353279Y-123621876D01*
X131401390Y-123682143D01*
X131407410Y-123688248D01*
X131407518Y-123688380D01*
X131407641Y-123688481D01*
X131409576Y-123690444D01*
X132811928Y-125092796D01*
X132811928Y-125350000D01*
X132819992Y-125451121D01*
X132873106Y-125622634D01*
X132971900Y-125772559D01*
X133108550Y-125889025D01*
X133272237Y-125962810D01*
X133450000Y-125988072D01*
X135250000Y-125988072D01*
X135351121Y-125980008D01*
X135522634Y-125926894D01*
X135672559Y-125828100D01*
X135789025Y-125691450D01*
X135862810Y-125527763D01*
X135888072Y-125350000D01*
X135888072Y-124550000D01*
X135880008Y-124448879D01*
X135826894Y-124277366D01*
X135728100Y-124127441D01*
X135591450Y-124010975D01*
X135564932Y-123999021D01*
X135672559Y-123928100D01*
X135789025Y-123791450D01*
X135862810Y-123627763D01*
X135888072Y-123450000D01*
X135888072Y-123114866D01*
X136154992Y-123377142D01*
X136139403Y-123414777D01*
X136115000Y-123537458D01*
X136115000Y-123714250D01*
X136273750Y-123873000D01*
X136659628Y-123873000D01*
X136918124Y-124127000D01*
X136273750Y-124127000D01*
X136115000Y-124285750D01*
X136115000Y-124462542D01*
X136139403Y-124585223D01*
X136187270Y-124700785D01*
X136256763Y-124804789D01*
X136345211Y-124893237D01*
X136449215Y-124962730D01*
X136564777Y-125010597D01*
X136687458Y-125035000D01*
X137364250Y-125035000D01*
X137523000Y-124876250D01*
X137523000Y-124564590D01*
X137777000Y-124710069D01*
X137777000Y-124876250D01*
X137935750Y-125035000D01*
X138344320Y-125035000D01*
X139300239Y-125582501D01*
X141659785Y-126374369D01*
X144020194Y-126676823D01*
X144030901Y-127290000D01*
X114034720Y-127290000D01*
X111419290Y-127033555D01*
X108936873Y-126284068D01*
X106647311Y-125066687D01*
X104637811Y-123427778D01*
X104519969Y-123285332D01*
X104722189Y-123329793D01*
X105180006Y-123339383D01*
X105630966Y-123259866D01*
X106057893Y-123094272D01*
X106444525Y-122848908D01*
X106776136Y-122533119D01*
X107040094Y-122158935D01*
X107226346Y-121740607D01*
X107284892Y-121482918D01*
X107345211Y-121543237D01*
X107449215Y-121612730D01*
X107564777Y-121660597D01*
X107687458Y-121685000D01*
X108114250Y-121685000D01*
X108273000Y-121526250D01*
X108273000Y-120427000D01*
X108527000Y-120427000D01*
X108527000Y-121526250D01*
X108685750Y-121685000D01*
X109112542Y-121685000D01*
X109235223Y-121660597D01*
X109350785Y-121612730D01*
X109454789Y-121543237D01*
X109543237Y-121454789D01*
X109612730Y-121350785D01*
X109660597Y-121235223D01*
X109685000Y-121112542D01*
X109685000Y-120585750D01*
X110186428Y-120585750D01*
X110186428Y-121112542D01*
X110210831Y-121235223D01*
X110258698Y-121350785D01*
X110328191Y-121454789D01*
X110416639Y-121543237D01*
X110520643Y-121612730D01*
X110636205Y-121660597D01*
X110758886Y-121685000D01*
X111185678Y-121685000D01*
X111344428Y-121526250D01*
X111344428Y-120427000D01*
X111598428Y-120427000D01*
X111598428Y-121526250D01*
X111757178Y-121685000D01*
X112183970Y-121685000D01*
X112306651Y-121660597D01*
X112422213Y-121612730D01*
X112526217Y-121543237D01*
X112614665Y-121454789D01*
X112684158Y-121350785D01*
X112732025Y-121235223D01*
X112756428Y-121112542D01*
X112756428Y-120585750D01*
X113257856Y-120585750D01*
X113257856Y-121112542D01*
X113282259Y-121235223D01*
X113330126Y-121350785D01*
X113399619Y-121454789D01*
X113488067Y-121543237D01*
X113592071Y-121612730D01*
X113707633Y-121660597D01*
X113830314Y-121685000D01*
X114257106Y-121685000D01*
X114415856Y-121526250D01*
X114415856Y-120427000D01*
X114669856Y-120427000D01*
X114669856Y-121526250D01*
X114828606Y-121685000D01*
X115255398Y-121685000D01*
X115378079Y-121660597D01*
X115493641Y-121612730D01*
X115597645Y-121543237D01*
X115686093Y-121454789D01*
X115755586Y-121350785D01*
X115803453Y-121235223D01*
X115827856Y-121112542D01*
X115827856Y-120585750D01*
X116329284Y-120585750D01*
X116329284Y-121112542D01*
X116353687Y-121235223D01*
X116401554Y-121350785D01*
X116471047Y-121454789D01*
X116559495Y-121543237D01*
X116663499Y-121612730D01*
X116779061Y-121660597D01*
X116901742Y-121685000D01*
X117328534Y-121685000D01*
X117487284Y-121526250D01*
X117487284Y-120427000D01*
X117741284Y-120427000D01*
X117741284Y-121526250D01*
X117900034Y-121685000D01*
X118326826Y-121685000D01*
X118449507Y-121660597D01*
X118565069Y-121612730D01*
X118669073Y-121543237D01*
X118757521Y-121454789D01*
X118827014Y-121350785D01*
X118874881Y-121235223D01*
X118899284Y-121112542D01*
X118899284Y-120585750D01*
X119400712Y-120585750D01*
X119400712Y-121112542D01*
X119425115Y-121235223D01*
X119472982Y-121350785D01*
X119542475Y-121454789D01*
X119630923Y-121543237D01*
X119734927Y-121612730D01*
X119850489Y-121660597D01*
X119973170Y-121685000D01*
X120399962Y-121685000D01*
X120558712Y-121526250D01*
X120558712Y-120427000D01*
X120812712Y-120427000D01*
X120812712Y-121526250D01*
X120971462Y-121685000D01*
X121398254Y-121685000D01*
X121520935Y-121660597D01*
X121636497Y-121612730D01*
X121740501Y-121543237D01*
X121828949Y-121454789D01*
X121898442Y-121350785D01*
X121946309Y-121235223D01*
X121970712Y-121112542D01*
X121970712Y-120585750D01*
X122472140Y-120585750D01*
X122472140Y-121112542D01*
X122496543Y-121235223D01*
X122544410Y-121350785D01*
X122613903Y-121454789D01*
X122702351Y-121543237D01*
X122806355Y-121612730D01*
X122921917Y-121660597D01*
X123044598Y-121685000D01*
X123471390Y-121685000D01*
X123630140Y-121526250D01*
X123630140Y-120427000D01*
X123884140Y-120427000D01*
X123884140Y-121526250D01*
X124042890Y-121685000D01*
X124469682Y-121685000D01*
X124592363Y-121660597D01*
X124707925Y-121612730D01*
X124811929Y-121543237D01*
X124900377Y-121454789D01*
X124969870Y-121350785D01*
X125017737Y-121235223D01*
X125042140Y-121112542D01*
X125042140Y-120585750D01*
X125543568Y-120585750D01*
X125543568Y-121112542D01*
X125567971Y-121235223D01*
X125615838Y-121350785D01*
X125685331Y-121454789D01*
X125773779Y-121543237D01*
X125877783Y-121612730D01*
X125993345Y-121660597D01*
X126116026Y-121685000D01*
X126542818Y-121685000D01*
X126701568Y-121526250D01*
X126701568Y-120427000D01*
X126955568Y-120427000D01*
X126955568Y-121526250D01*
X127114318Y-121685000D01*
X127541110Y-121685000D01*
X127663791Y-121660597D01*
X127779353Y-121612730D01*
X127883357Y-121543237D01*
X127971805Y-121454789D01*
X128041298Y-121350785D01*
X128089165Y-121235223D01*
X128113568Y-121112542D01*
X128113568Y-120585750D01*
X128614996Y-120585750D01*
X128614996Y-121112542D01*
X128639399Y-121235223D01*
X128687266Y-121350785D01*
X128756759Y-121454789D01*
X128845207Y-121543237D01*
X128949211Y-121612730D01*
X129064773Y-121660597D01*
X129187454Y-121685000D01*
X129614246Y-121685000D01*
X129772996Y-121526250D01*
X129772996Y-120427000D01*
X128773746Y-120427000D01*
X128614996Y-120585750D01*
X128113568Y-120585750D01*
X127954818Y-120427000D01*
X126955568Y-120427000D01*
X126701568Y-120427000D01*
X125702318Y-120427000D01*
X125543568Y-120585750D01*
X125042140Y-120585750D01*
X124883390Y-120427000D01*
X123884140Y-120427000D01*
X123630140Y-120427000D01*
X122630890Y-120427000D01*
X122472140Y-120585750D01*
X121970712Y-120585750D01*
X121811962Y-120427000D01*
X120812712Y-120427000D01*
X120558712Y-120427000D01*
X119559462Y-120427000D01*
X119400712Y-120585750D01*
X118899284Y-120585750D01*
X118740534Y-120427000D01*
X117741284Y-120427000D01*
X117487284Y-120427000D01*
X116488034Y-120427000D01*
X116329284Y-120585750D01*
X115827856Y-120585750D01*
X115669106Y-120427000D01*
X114669856Y-120427000D01*
X114415856Y-120427000D01*
X113416606Y-120427000D01*
X113257856Y-120585750D01*
X112756428Y-120585750D01*
X112597678Y-120427000D01*
X111598428Y-120427000D01*
X111344428Y-120427000D01*
X110345178Y-120427000D01*
X110186428Y-120585750D01*
X109685000Y-120585750D01*
X109526250Y-120427000D01*
X108527000Y-120427000D01*
X108273000Y-120427000D01*
X108253000Y-120427000D01*
X108253000Y-120173000D01*
X108273000Y-120173000D01*
X108273000Y-120153000D01*
X108527000Y-120153000D01*
X108527000Y-120173000D01*
X109526250Y-120173000D01*
X109685000Y-120014250D01*
X109685000Y-119487458D01*
X109660597Y-119364777D01*
X109612730Y-119249215D01*
X109543237Y-119145211D01*
X109454789Y-119056763D01*
X109350785Y-118987270D01*
X109255337Y-118947734D01*
X109322634Y-118926894D01*
X109472559Y-118828100D01*
X109589025Y-118691450D01*
X109662810Y-118527763D01*
X109688072Y-118350000D01*
X109688072Y-117668940D01*
X110183356Y-118164224D01*
X110183356Y-118350000D01*
X110191420Y-118451121D01*
X110244534Y-118622634D01*
X110343328Y-118772559D01*
X110479978Y-118889025D01*
X110613032Y-118949002D01*
X110520643Y-118987270D01*
X110416639Y-119056763D01*
X110328191Y-119145211D01*
X110258698Y-119249215D01*
X110210831Y-119364777D01*
X110186428Y-119487458D01*
X110186428Y-120014250D01*
X110345178Y-120173000D01*
X111344428Y-120173000D01*
X111344428Y-120153000D01*
X111598428Y-120153000D01*
X111598428Y-120173000D01*
X112597678Y-120173000D01*
X112756428Y-120014250D01*
X112756428Y-119487458D01*
X112732025Y-119364777D01*
X112684158Y-119249215D01*
X112614665Y-119145211D01*
X112526217Y-119056763D01*
X112422213Y-118987270D01*
X112326765Y-118947734D01*
X112394062Y-118926894D01*
X112543987Y-118828100D01*
X112660453Y-118691450D01*
X112734238Y-118527763D01*
X112759500Y-118350000D01*
X112759500Y-116940369D01*
X113254784Y-117435653D01*
X113254784Y-118350000D01*
X113262848Y-118451121D01*
X113315962Y-118622634D01*
X113414756Y-118772559D01*
X113551406Y-118889025D01*
X113684460Y-118949002D01*
X113592071Y-118987270D01*
X113488067Y-119056763D01*
X113399619Y-119145211D01*
X113330126Y-119249215D01*
X113282259Y-119364777D01*
X113257856Y-119487458D01*
X113257856Y-120014250D01*
X113416606Y-120173000D01*
X114415856Y-120173000D01*
X114415856Y-120153000D01*
X114669856Y-120153000D01*
X114669856Y-120173000D01*
X115669106Y-120173000D01*
X115827856Y-120014250D01*
X115827856Y-119487458D01*
X115803453Y-119364777D01*
X115755586Y-119249215D01*
X115686093Y-119145211D01*
X115597645Y-119056763D01*
X115493641Y-118987270D01*
X115398193Y-118947734D01*
X115465490Y-118926894D01*
X115615415Y-118828100D01*
X115731881Y-118691450D01*
X115805666Y-118527763D01*
X115830928Y-118350000D01*
X115830928Y-116897512D01*
X116326212Y-117392796D01*
X116326212Y-118350000D01*
X116334276Y-118451121D01*
X116387390Y-118622634D01*
X116486184Y-118772559D01*
X116622834Y-118889025D01*
X116755888Y-118949002D01*
X116663499Y-118987270D01*
X116559495Y-119056763D01*
X116471047Y-119145211D01*
X116401554Y-119249215D01*
X116353687Y-119364777D01*
X116329284Y-119487458D01*
X116329284Y-120014250D01*
X116488034Y-120173000D01*
X117487284Y-120173000D01*
X117487284Y-120153000D01*
X117741284Y-120153000D01*
X117741284Y-120173000D01*
X118740534Y-120173000D01*
X118899284Y-120014250D01*
X118899284Y-119487458D01*
X118874881Y-119364777D01*
X118827014Y-119249215D01*
X118757521Y-119145211D01*
X118669073Y-119056763D01*
X118565069Y-118987270D01*
X118469621Y-118947734D01*
X118536918Y-118926894D01*
X118686843Y-118828100D01*
X118803309Y-118691450D01*
X118877094Y-118527763D01*
X118902356Y-118350000D01*
X118902356Y-116897512D01*
X119397640Y-117392796D01*
X119397640Y-118350000D01*
X119405704Y-118451121D01*
X119458818Y-118622634D01*
X119557612Y-118772559D01*
X119694262Y-118889025D01*
X119827316Y-118949002D01*
X119734927Y-118987270D01*
X119630923Y-119056763D01*
X119542475Y-119145211D01*
X119472982Y-119249215D01*
X119425115Y-119364777D01*
X119400712Y-119487458D01*
X119400712Y-120014250D01*
X119559462Y-120173000D01*
X120558712Y-120173000D01*
X120558712Y-120153000D01*
X120812712Y-120153000D01*
X120812712Y-120173000D01*
X121811962Y-120173000D01*
X121970712Y-120014250D01*
X121970712Y-119487458D01*
X121946309Y-119364777D01*
X121898442Y-119249215D01*
X121828949Y-119145211D01*
X121740501Y-119056763D01*
X121636497Y-118987270D01*
X121541049Y-118947734D01*
X121608346Y-118926894D01*
X121758271Y-118828100D01*
X121874737Y-118691450D01*
X121948522Y-118527763D01*
X121973784Y-118350000D01*
X121973784Y-116850000D01*
X121965720Y-116748879D01*
X121912606Y-116577366D01*
X121813812Y-116427441D01*
X121677162Y-116310975D01*
X121515432Y-116238072D01*
X122600000Y-116238072D01*
X122701121Y-116230008D01*
X122872634Y-116176894D01*
X122922140Y-116144272D01*
X122922140Y-116245968D01*
X122834506Y-116273106D01*
X122684581Y-116371900D01*
X122568115Y-116508550D01*
X122494330Y-116672237D01*
X122469068Y-116850000D01*
X122469068Y-118350000D01*
X122477132Y-118451121D01*
X122530246Y-118622634D01*
X122629040Y-118772559D01*
X122765690Y-118889025D01*
X122898744Y-118949002D01*
X122806355Y-118987270D01*
X122702351Y-119056763D01*
X122613903Y-119145211D01*
X122544410Y-119249215D01*
X122496543Y-119364777D01*
X122472140Y-119487458D01*
X122472140Y-120014250D01*
X122630890Y-120173000D01*
X123630140Y-120173000D01*
X123630140Y-120153000D01*
X123884140Y-120153000D01*
X123884140Y-120173000D01*
X124883390Y-120173000D01*
X125042140Y-120014250D01*
X125042140Y-119487458D01*
X125017737Y-119364777D01*
X124969870Y-119249215D01*
X124900377Y-119145211D01*
X124811929Y-119056763D01*
X124707925Y-118987270D01*
X124612477Y-118947734D01*
X124679774Y-118926894D01*
X124829699Y-118828100D01*
X124946165Y-118691450D01*
X125019950Y-118527763D01*
X125045212Y-118350000D01*
X125045212Y-116897512D01*
X125540496Y-117392796D01*
X125540496Y-118350000D01*
X125548560Y-118451121D01*
X125601674Y-118622634D01*
X125700468Y-118772559D01*
X125837118Y-118889025D01*
X125970172Y-118949002D01*
X125877783Y-118987270D01*
X125773779Y-119056763D01*
X125685331Y-119145211D01*
X125615838Y-119249215D01*
X125567971Y-119364777D01*
X125543568Y-119487458D01*
X125543568Y-120014250D01*
X125702318Y-120173000D01*
X126701568Y-120173000D01*
X126701568Y-120153000D01*
X126955568Y-120153000D01*
X126955568Y-120173000D01*
X127954818Y-120173000D01*
X128113568Y-120014250D01*
X128113568Y-119487458D01*
X128089165Y-119364777D01*
X128041298Y-119249215D01*
X127971805Y-119145211D01*
X127883357Y-119056763D01*
X127779353Y-118987270D01*
X127683905Y-118947734D01*
X127751202Y-118926894D01*
X127901127Y-118828100D01*
X128017593Y-118691450D01*
X128091378Y-118527763D01*
X128116640Y-118350000D01*
X128116640Y-116850000D01*
X128108576Y-116748879D01*
X128055462Y-116577366D01*
X127956668Y-116427441D01*
X127820018Y-116310975D01*
X127656331Y-116237190D01*
X127478568Y-116211928D01*
X126721364Y-116211928D01*
X126641169Y-116131733D01*
X126722559Y-116078100D01*
X126839025Y-115941450D01*
X126912810Y-115777763D01*
X126938072Y-115600000D01*
X126938072Y-113800000D01*
X126930008Y-113698879D01*
X126876894Y-113527366D01*
X126778100Y-113377441D01*
X126641450Y-113260975D01*
X126524963Y-113208466D01*
X126567610Y-113167854D01*
X126741132Y-112921869D01*
X126863572Y-112646866D01*
X126930265Y-112353317D01*
X126935066Y-112009486D01*
X126876595Y-111714190D01*
X126761882Y-111435874D01*
X126595295Y-111185141D01*
X126383180Y-110971540D01*
X126133616Y-110803206D01*
X125856108Y-110686553D01*
X125685000Y-110651430D01*
X125685000Y-109925868D01*
X127598741Y-111839609D01*
X127598741Y-111839609D01*
G37*
X127598741Y-111839609D02*
X127567186Y-111988067D01*
X127562983Y-112289067D01*
X127617324Y-112585150D01*
X127728140Y-112865040D01*
X127891210Y-113118075D01*
X127977611Y-113207546D01*
X127927366Y-113223106D01*
X127777441Y-113321900D01*
X127660975Y-113458550D01*
X127587190Y-113622237D01*
X127561928Y-113800000D01*
X127561928Y-115600000D01*
X127569992Y-115701121D01*
X127623106Y-115872634D01*
X127721900Y-116022559D01*
X127858550Y-116139025D01*
X128022237Y-116212810D01*
X128200000Y-116238072D01*
X128265000Y-116238072D01*
X128265000Y-116800004D01*
X128272525Y-116876751D01*
X128279249Y-116953604D01*
X128280473Y-116957818D01*
X128280902Y-116962190D01*
X128303212Y-117036085D01*
X128324715Y-117110096D01*
X128326734Y-117113990D01*
X128328004Y-117118198D01*
X128364223Y-117186315D01*
X128399710Y-117254778D01*
X128402451Y-117258211D01*
X128404511Y-117262086D01*
X128453269Y-117321870D01*
X128501380Y-117382137D01*
X128507400Y-117388242D01*
X128507508Y-117388374D01*
X128507631Y-117388475D01*
X128509566Y-117390438D01*
X128611924Y-117492796D01*
X128611924Y-118350000D01*
X128619988Y-118451121D01*
X128673102Y-118622634D01*
X128771896Y-118772559D01*
X128908546Y-118889025D01*
X129041600Y-118949002D01*
X128949211Y-118987270D01*
X128845207Y-119056763D01*
X128756759Y-119145211D01*
X128687266Y-119249215D01*
X128639399Y-119364777D01*
X128614996Y-119487458D01*
X128614996Y-120014250D01*
X128773746Y-120173000D01*
X129772996Y-120173000D01*
X129772996Y-120153000D01*
X130026996Y-120153000D01*
X130026996Y-120173000D01*
X130046996Y-120173000D01*
X130046996Y-120427000D01*
X130026996Y-120427000D01*
X130026996Y-121526250D01*
X130185746Y-121685000D01*
X130612538Y-121685000D01*
X130735219Y-121660597D01*
X130850781Y-121612730D01*
X130954785Y-121543237D01*
X131043233Y-121454789D01*
X131112726Y-121350785D01*
X131160593Y-121235223D01*
X131165010Y-121213017D01*
X131165010Y-123100010D01*
X131172535Y-123176757D01*
X131179259Y-123253610D01*
X131180483Y-123257824D01*
X131180912Y-123262196D01*
X131203222Y-123336091D01*
X131224725Y-123410102D01*
X131226744Y-123413996D01*
X131228014Y-123418204D01*
X131264233Y-123486321D01*
X131299720Y-123554784D01*
X131302461Y-123558217D01*
X131304521Y-123562092D01*
X131353279Y-123621876D01*
X131401390Y-123682143D01*
X131407410Y-123688248D01*
X131407518Y-123688380D01*
X131407641Y-123688481D01*
X131409576Y-123690444D01*
X132811928Y-125092796D01*
X132811928Y-125350000D01*
X132819992Y-125451121D01*
X132873106Y-125622634D01*
X132971900Y-125772559D01*
X133108550Y-125889025D01*
X133272237Y-125962810D01*
X133450000Y-125988072D01*
X135250000Y-125988072D01*
X135351121Y-125980008D01*
X135522634Y-125926894D01*
X135672559Y-125828100D01*
X135789025Y-125691450D01*
X135862810Y-125527763D01*
X135888072Y-125350000D01*
X135888072Y-124550000D01*
X135880008Y-124448879D01*
X135826894Y-124277366D01*
X135728100Y-124127441D01*
X135591450Y-124010975D01*
X135564932Y-123999021D01*
X135672559Y-123928100D01*
X135789025Y-123791450D01*
X135862810Y-123627763D01*
X135888072Y-123450000D01*
X135888072Y-123114866D01*
X136154992Y-123377142D01*
X136139403Y-123414777D01*
X136115000Y-123537458D01*
X136115000Y-123714250D01*
X136273750Y-123873000D01*
X136659628Y-123873000D01*
X136918124Y-124127000D01*
X136273750Y-124127000D01*
X136115000Y-124285750D01*
X136115000Y-124462542D01*
X136139403Y-124585223D01*
X136187270Y-124700785D01*
X136256763Y-124804789D01*
X136345211Y-124893237D01*
X136449215Y-124962730D01*
X136564777Y-125010597D01*
X136687458Y-125035000D01*
X137364250Y-125035000D01*
X137523000Y-124876250D01*
X137523000Y-124564590D01*
X137777000Y-124710069D01*
X137777000Y-124876250D01*
X137935750Y-125035000D01*
X138344320Y-125035000D01*
X139300239Y-125582501D01*
X141659785Y-126374369D01*
X144020194Y-126676823D01*
X144030901Y-127290000D01*
X114034720Y-127290000D01*
X111419290Y-127033555D01*
X108936873Y-126284068D01*
X106647311Y-125066687D01*
X104637811Y-123427778D01*
X104519969Y-123285332D01*
X104722189Y-123329793D01*
X105180006Y-123339383D01*
X105630966Y-123259866D01*
X106057893Y-123094272D01*
X106444525Y-122848908D01*
X106776136Y-122533119D01*
X107040094Y-122158935D01*
X107226346Y-121740607D01*
X107284892Y-121482918D01*
X107345211Y-121543237D01*
X107449215Y-121612730D01*
X107564777Y-121660597D01*
X107687458Y-121685000D01*
X108114250Y-121685000D01*
X108273000Y-121526250D01*
X108273000Y-120427000D01*
X108527000Y-120427000D01*
X108527000Y-121526250D01*
X108685750Y-121685000D01*
X109112542Y-121685000D01*
X109235223Y-121660597D01*
X109350785Y-121612730D01*
X109454789Y-121543237D01*
X109543237Y-121454789D01*
X109612730Y-121350785D01*
X109660597Y-121235223D01*
X109685000Y-121112542D01*
X109685000Y-120585750D01*
X110186428Y-120585750D01*
X110186428Y-121112542D01*
X110210831Y-121235223D01*
X110258698Y-121350785D01*
X110328191Y-121454789D01*
X110416639Y-121543237D01*
X110520643Y-121612730D01*
X110636205Y-121660597D01*
X110758886Y-121685000D01*
X111185678Y-121685000D01*
X111344428Y-121526250D01*
X111344428Y-120427000D01*
X111598428Y-120427000D01*
X111598428Y-121526250D01*
X111757178Y-121685000D01*
X112183970Y-121685000D01*
X112306651Y-121660597D01*
X112422213Y-121612730D01*
X112526217Y-121543237D01*
X112614665Y-121454789D01*
X112684158Y-121350785D01*
X112732025Y-121235223D01*
X112756428Y-121112542D01*
X112756428Y-120585750D01*
X113257856Y-120585750D01*
X113257856Y-121112542D01*
X113282259Y-121235223D01*
X113330126Y-121350785D01*
X113399619Y-121454789D01*
X113488067Y-121543237D01*
X113592071Y-121612730D01*
X113707633Y-121660597D01*
X113830314Y-121685000D01*
X114257106Y-121685000D01*
X114415856Y-121526250D01*
X114415856Y-120427000D01*
X114669856Y-120427000D01*
X114669856Y-121526250D01*
X114828606Y-121685000D01*
X115255398Y-121685000D01*
X115378079Y-121660597D01*
X115493641Y-121612730D01*
X115597645Y-121543237D01*
X115686093Y-121454789D01*
X115755586Y-121350785D01*
X115803453Y-121235223D01*
X115827856Y-121112542D01*
X115827856Y-120585750D01*
X116329284Y-120585750D01*
X116329284Y-121112542D01*
X116353687Y-121235223D01*
X116401554Y-121350785D01*
X116471047Y-121454789D01*
X116559495Y-121543237D01*
X116663499Y-121612730D01*
X116779061Y-121660597D01*
X116901742Y-121685000D01*
X117328534Y-121685000D01*
X117487284Y-121526250D01*
X117487284Y-120427000D01*
X117741284Y-120427000D01*
X117741284Y-121526250D01*
X117900034Y-121685000D01*
X118326826Y-121685000D01*
X118449507Y-121660597D01*
X118565069Y-121612730D01*
X118669073Y-121543237D01*
X118757521Y-121454789D01*
X118827014Y-121350785D01*
X118874881Y-121235223D01*
X118899284Y-121112542D01*
X118899284Y-120585750D01*
X119400712Y-120585750D01*
X119400712Y-121112542D01*
X119425115Y-121235223D01*
X119472982Y-121350785D01*
X119542475Y-121454789D01*
X119630923Y-121543237D01*
X119734927Y-121612730D01*
X119850489Y-121660597D01*
X119973170Y-121685000D01*
X120399962Y-121685000D01*
X120558712Y-121526250D01*
X120558712Y-120427000D01*
X120812712Y-120427000D01*
X120812712Y-121526250D01*
X120971462Y-121685000D01*
X121398254Y-121685000D01*
X121520935Y-121660597D01*
X121636497Y-121612730D01*
X121740501Y-121543237D01*
X121828949Y-121454789D01*
X121898442Y-121350785D01*
X121946309Y-121235223D01*
X121970712Y-121112542D01*
X121970712Y-120585750D01*
X122472140Y-120585750D01*
X122472140Y-121112542D01*
X122496543Y-121235223D01*
X122544410Y-121350785D01*
X122613903Y-121454789D01*
X122702351Y-121543237D01*
X122806355Y-121612730D01*
X122921917Y-121660597D01*
X123044598Y-121685000D01*
X123471390Y-121685000D01*
X123630140Y-121526250D01*
X123630140Y-120427000D01*
X123884140Y-120427000D01*
X123884140Y-121526250D01*
X124042890Y-121685000D01*
X124469682Y-121685000D01*
X124592363Y-121660597D01*
X124707925Y-121612730D01*
X124811929Y-121543237D01*
X124900377Y-121454789D01*
X124969870Y-121350785D01*
X125017737Y-121235223D01*
X125042140Y-121112542D01*
X125042140Y-120585750D01*
X125543568Y-120585750D01*
X125543568Y-121112542D01*
X125567971Y-121235223D01*
X125615838Y-121350785D01*
X125685331Y-121454789D01*
X125773779Y-121543237D01*
X125877783Y-121612730D01*
X125993345Y-121660597D01*
X126116026Y-121685000D01*
X126542818Y-121685000D01*
X126701568Y-121526250D01*
X126701568Y-120427000D01*
X126955568Y-120427000D01*
X126955568Y-121526250D01*
X127114318Y-121685000D01*
X127541110Y-121685000D01*
X127663791Y-121660597D01*
X127779353Y-121612730D01*
X127883357Y-121543237D01*
X127971805Y-121454789D01*
X128041298Y-121350785D01*
X128089165Y-121235223D01*
X128113568Y-121112542D01*
X128113568Y-120585750D01*
X128614996Y-120585750D01*
X128614996Y-121112542D01*
X128639399Y-121235223D01*
X128687266Y-121350785D01*
X128756759Y-121454789D01*
X128845207Y-121543237D01*
X128949211Y-121612730D01*
X129064773Y-121660597D01*
X129187454Y-121685000D01*
X129614246Y-121685000D01*
X129772996Y-121526250D01*
X129772996Y-120427000D01*
X128773746Y-120427000D01*
X128614996Y-120585750D01*
X128113568Y-120585750D01*
X127954818Y-120427000D01*
X126955568Y-120427000D01*
X126701568Y-120427000D01*
X125702318Y-120427000D01*
X125543568Y-120585750D01*
X125042140Y-120585750D01*
X124883390Y-120427000D01*
X123884140Y-120427000D01*
X123630140Y-120427000D01*
X122630890Y-120427000D01*
X122472140Y-120585750D01*
X121970712Y-120585750D01*
X121811962Y-120427000D01*
X120812712Y-120427000D01*
X120558712Y-120427000D01*
X119559462Y-120427000D01*
X119400712Y-120585750D01*
X118899284Y-120585750D01*
X118740534Y-120427000D01*
X117741284Y-120427000D01*
X117487284Y-120427000D01*
X116488034Y-120427000D01*
X116329284Y-120585750D01*
X115827856Y-120585750D01*
X115669106Y-120427000D01*
X114669856Y-120427000D01*
X114415856Y-120427000D01*
X113416606Y-120427000D01*
X113257856Y-120585750D01*
X112756428Y-120585750D01*
X112597678Y-120427000D01*
X111598428Y-120427000D01*
X111344428Y-120427000D01*
X110345178Y-120427000D01*
X110186428Y-120585750D01*
X109685000Y-120585750D01*
X109526250Y-120427000D01*
X108527000Y-120427000D01*
X108273000Y-120427000D01*
X108253000Y-120427000D01*
X108253000Y-120173000D01*
X108273000Y-120173000D01*
X108273000Y-120153000D01*
X108527000Y-120153000D01*
X108527000Y-120173000D01*
X109526250Y-120173000D01*
X109685000Y-120014250D01*
X109685000Y-119487458D01*
X109660597Y-119364777D01*
X109612730Y-119249215D01*
X109543237Y-119145211D01*
X109454789Y-119056763D01*
X109350785Y-118987270D01*
X109255337Y-118947734D01*
X109322634Y-118926894D01*
X109472559Y-118828100D01*
X109589025Y-118691450D01*
X109662810Y-118527763D01*
X109688072Y-118350000D01*
X109688072Y-117668940D01*
X110183356Y-118164224D01*
X110183356Y-118350000D01*
X110191420Y-118451121D01*
X110244534Y-118622634D01*
X110343328Y-118772559D01*
X110479978Y-118889025D01*
X110613032Y-118949002D01*
X110520643Y-118987270D01*
X110416639Y-119056763D01*
X110328191Y-119145211D01*
X110258698Y-119249215D01*
X110210831Y-119364777D01*
X110186428Y-119487458D01*
X110186428Y-120014250D01*
X110345178Y-120173000D01*
X111344428Y-120173000D01*
X111344428Y-120153000D01*
X111598428Y-120153000D01*
X111598428Y-120173000D01*
X112597678Y-120173000D01*
X112756428Y-120014250D01*
X112756428Y-119487458D01*
X112732025Y-119364777D01*
X112684158Y-119249215D01*
X112614665Y-119145211D01*
X112526217Y-119056763D01*
X112422213Y-118987270D01*
X112326765Y-118947734D01*
X112394062Y-118926894D01*
X112543987Y-118828100D01*
X112660453Y-118691450D01*
X112734238Y-118527763D01*
X112759500Y-118350000D01*
X112759500Y-116940369D01*
X113254784Y-117435653D01*
X113254784Y-118350000D01*
X113262848Y-118451121D01*
X113315962Y-118622634D01*
X113414756Y-118772559D01*
X113551406Y-118889025D01*
X113684460Y-118949002D01*
X113592071Y-118987270D01*
X113488067Y-119056763D01*
X113399619Y-119145211D01*
X113330126Y-119249215D01*
X113282259Y-119364777D01*
X113257856Y-119487458D01*
X113257856Y-120014250D01*
X113416606Y-120173000D01*
X114415856Y-120173000D01*
X114415856Y-120153000D01*
X114669856Y-120153000D01*
X114669856Y-120173000D01*
X115669106Y-120173000D01*
X115827856Y-120014250D01*
X115827856Y-119487458D01*
X115803453Y-119364777D01*
X115755586Y-119249215D01*
X115686093Y-119145211D01*
X115597645Y-119056763D01*
X115493641Y-118987270D01*
X115398193Y-118947734D01*
X115465490Y-118926894D01*
X115615415Y-118828100D01*
X115731881Y-118691450D01*
X115805666Y-118527763D01*
X115830928Y-118350000D01*
X115830928Y-116897512D01*
X116326212Y-117392796D01*
X116326212Y-118350000D01*
X116334276Y-118451121D01*
X116387390Y-118622634D01*
X116486184Y-118772559D01*
X116622834Y-118889025D01*
X116755888Y-118949002D01*
X116663499Y-118987270D01*
X116559495Y-119056763D01*
X116471047Y-119145211D01*
X116401554Y-119249215D01*
X116353687Y-119364777D01*
X116329284Y-119487458D01*
X116329284Y-120014250D01*
X116488034Y-120173000D01*
X117487284Y-120173000D01*
X117487284Y-120153000D01*
X117741284Y-120153000D01*
X117741284Y-120173000D01*
X118740534Y-120173000D01*
X118899284Y-120014250D01*
X118899284Y-119487458D01*
X118874881Y-119364777D01*
X118827014Y-119249215D01*
X118757521Y-119145211D01*
X118669073Y-119056763D01*
X118565069Y-118987270D01*
X118469621Y-118947734D01*
X118536918Y-118926894D01*
X118686843Y-118828100D01*
X118803309Y-118691450D01*
X118877094Y-118527763D01*
X118902356Y-118350000D01*
X118902356Y-116897512D01*
X119397640Y-117392796D01*
X119397640Y-118350000D01*
X119405704Y-118451121D01*
X119458818Y-118622634D01*
X119557612Y-118772559D01*
X119694262Y-118889025D01*
X119827316Y-118949002D01*
X119734927Y-118987270D01*
X119630923Y-119056763D01*
X119542475Y-119145211D01*
X119472982Y-119249215D01*
X119425115Y-119364777D01*
X119400712Y-119487458D01*
X119400712Y-120014250D01*
X119559462Y-120173000D01*
X120558712Y-120173000D01*
X120558712Y-120153000D01*
X120812712Y-120153000D01*
X120812712Y-120173000D01*
X121811962Y-120173000D01*
X121970712Y-120014250D01*
X121970712Y-119487458D01*
X121946309Y-119364777D01*
X121898442Y-119249215D01*
X121828949Y-119145211D01*
X121740501Y-119056763D01*
X121636497Y-118987270D01*
X121541049Y-118947734D01*
X121608346Y-118926894D01*
X121758271Y-118828100D01*
X121874737Y-118691450D01*
X121948522Y-118527763D01*
X121973784Y-118350000D01*
X121973784Y-116850000D01*
X121965720Y-116748879D01*
X121912606Y-116577366D01*
X121813812Y-116427441D01*
X121677162Y-116310975D01*
X121515432Y-116238072D01*
X122600000Y-116238072D01*
X122701121Y-116230008D01*
X122872634Y-116176894D01*
X122922140Y-116144272D01*
X122922140Y-116245968D01*
X122834506Y-116273106D01*
X122684581Y-116371900D01*
X122568115Y-116508550D01*
X122494330Y-116672237D01*
X122469068Y-116850000D01*
X122469068Y-118350000D01*
X122477132Y-118451121D01*
X122530246Y-118622634D01*
X122629040Y-118772559D01*
X122765690Y-118889025D01*
X122898744Y-118949002D01*
X122806355Y-118987270D01*
X122702351Y-119056763D01*
X122613903Y-119145211D01*
X122544410Y-119249215D01*
X122496543Y-119364777D01*
X122472140Y-119487458D01*
X122472140Y-120014250D01*
X122630890Y-120173000D01*
X123630140Y-120173000D01*
X123630140Y-120153000D01*
X123884140Y-120153000D01*
X123884140Y-120173000D01*
X124883390Y-120173000D01*
X125042140Y-120014250D01*
X125042140Y-119487458D01*
X125017737Y-119364777D01*
X124969870Y-119249215D01*
X124900377Y-119145211D01*
X124811929Y-119056763D01*
X124707925Y-118987270D01*
X124612477Y-118947734D01*
X124679774Y-118926894D01*
X124829699Y-118828100D01*
X124946165Y-118691450D01*
X125019950Y-118527763D01*
X125045212Y-118350000D01*
X125045212Y-116897512D01*
X125540496Y-117392796D01*
X125540496Y-118350000D01*
X125548560Y-118451121D01*
X125601674Y-118622634D01*
X125700468Y-118772559D01*
X125837118Y-118889025D01*
X125970172Y-118949002D01*
X125877783Y-118987270D01*
X125773779Y-119056763D01*
X125685331Y-119145211D01*
X125615838Y-119249215D01*
X125567971Y-119364777D01*
X125543568Y-119487458D01*
X125543568Y-120014250D01*
X125702318Y-120173000D01*
X126701568Y-120173000D01*
X126701568Y-120153000D01*
X126955568Y-120153000D01*
X126955568Y-120173000D01*
X127954818Y-120173000D01*
X128113568Y-120014250D01*
X128113568Y-119487458D01*
X128089165Y-119364777D01*
X128041298Y-119249215D01*
X127971805Y-119145211D01*
X127883357Y-119056763D01*
X127779353Y-118987270D01*
X127683905Y-118947734D01*
X127751202Y-118926894D01*
X127901127Y-118828100D01*
X128017593Y-118691450D01*
X128091378Y-118527763D01*
X128116640Y-118350000D01*
X128116640Y-116850000D01*
X128108576Y-116748879D01*
X128055462Y-116577366D01*
X127956668Y-116427441D01*
X127820018Y-116310975D01*
X127656331Y-116237190D01*
X127478568Y-116211928D01*
X126721364Y-116211928D01*
X126641169Y-116131733D01*
X126722559Y-116078100D01*
X126839025Y-115941450D01*
X126912810Y-115777763D01*
X126938072Y-115600000D01*
X126938072Y-113800000D01*
X126930008Y-113698879D01*
X126876894Y-113527366D01*
X126778100Y-113377441D01*
X126641450Y-113260975D01*
X126524963Y-113208466D01*
X126567610Y-113167854D01*
X126741132Y-112921869D01*
X126863572Y-112646866D01*
X126930265Y-112353317D01*
X126935066Y-112009486D01*
X126876595Y-111714190D01*
X126761882Y-111435874D01*
X126595295Y-111185141D01*
X126383180Y-110971540D01*
X126133616Y-110803206D01*
X125856108Y-110686553D01*
X125685000Y-110651430D01*
X125685000Y-109925868D01*
X127598741Y-111839609D01*
G36*
X116405132Y-101214000D02*
X116171731Y-101166089D01*
X115851099Y-101163851D01*
X115536138Y-101223933D01*
X115238846Y-101344046D01*
X114970546Y-101519617D01*
X114741457Y-101743957D01*
X114560306Y-102008522D01*
X114433993Y-102303233D01*
X114367328Y-102616866D01*
X114362851Y-102937475D01*
X114420733Y-103252848D01*
X114538768Y-103550971D01*
X114712461Y-103820491D01*
X114935197Y-104051140D01*
X115198490Y-104234133D01*
X115492313Y-104362501D01*
X115805473Y-104431354D01*
X116126043Y-104438069D01*
X116441811Y-104382390D01*
X116740752Y-104266439D01*
X117011477Y-104094632D01*
X117243676Y-103873512D01*
X117428503Y-103611503D01*
X117558919Y-103318583D01*
X117565000Y-103291817D01*
X117565000Y-103754131D01*
X116154152Y-105164980D01*
X111911477Y-105164981D01*
X111834685Y-105172510D01*
X111757877Y-105179230D01*
X111753663Y-105180454D01*
X111749291Y-105180883D01*
X111675410Y-105203189D01*
X111601384Y-105224696D01*
X111597488Y-105226715D01*
X111593283Y-105227985D01*
X111525145Y-105264215D01*
X111456703Y-105299692D01*
X111453273Y-105302430D01*
X111449395Y-105304492D01*
X111389608Y-105353253D01*
X111329343Y-105401361D01*
X111323238Y-105407382D01*
X111323107Y-105407489D01*
X111323007Y-105407610D01*
X111321043Y-105409547D01*
X106705591Y-110024999D01*
X104060001Y-110024999D01*
X103983209Y-110032528D01*
X103906401Y-110039248D01*
X103902187Y-110040472D01*
X103897815Y-110040901D01*
X103823934Y-110063207D01*
X103749908Y-110084714D01*
X103746012Y-110086733D01*
X103741807Y-110088003D01*
X103673708Y-110124212D01*
X103605227Y-110159709D01*
X103601794Y-110162450D01*
X103597919Y-110164510D01*
X103538135Y-110213268D01*
X103477868Y-110261379D01*
X103471763Y-110267399D01*
X103471631Y-110267507D01*
X103471530Y-110267630D01*
X103469567Y-110269565D01*
X103080430Y-110658702D01*
X102921228Y-110626023D01*
X102620206Y-110623921D01*
X102324509Y-110680328D01*
X102045400Y-110793096D01*
X101793509Y-110957928D01*
X101578432Y-111168547D01*
X101408361Y-111416930D01*
X101289773Y-111693617D01*
X101227186Y-111988067D01*
X101222983Y-112289067D01*
X101277324Y-112585150D01*
X101388140Y-112865040D01*
X101551210Y-113118075D01*
X101637611Y-113207546D01*
X101587366Y-113223106D01*
X101437441Y-113321900D01*
X101320975Y-113458550D01*
X101247190Y-113622237D01*
X101221928Y-113800000D01*
X101221928Y-115600000D01*
X101229992Y-115701121D01*
X101283106Y-115872634D01*
X101381900Y-116022559D01*
X101518550Y-116139025D01*
X101682237Y-116212810D01*
X101860000Y-116238072D01*
X101963791Y-116238072D01*
X101984715Y-116310092D01*
X101986734Y-116313986D01*
X101988004Y-116318194D01*
X102024223Y-116386311D01*
X102059710Y-116454774D01*
X102062451Y-116458207D01*
X102064511Y-116462082D01*
X102113269Y-116521866D01*
X102161380Y-116582133D01*
X102167400Y-116588238D01*
X102167508Y-116588370D01*
X102167631Y-116588471D01*
X102169566Y-116590434D01*
X103769566Y-118190434D01*
X103829182Y-118239404D01*
X103888253Y-118288970D01*
X103892096Y-118291083D01*
X103895493Y-118293873D01*
X103963526Y-118330352D01*
X104031059Y-118367478D01*
X104035242Y-118368805D01*
X104039114Y-118370881D01*
X104112921Y-118393446D01*
X104186394Y-118416753D01*
X104190754Y-118417242D01*
X104194957Y-118418527D01*
X104271756Y-118426328D01*
X104348342Y-118434919D01*
X104356914Y-118434979D01*
X104357086Y-118434996D01*
X104357246Y-118434981D01*
X104360000Y-118435000D01*
X107118706Y-118435000D01*
X107119992Y-118451121D01*
X107173106Y-118622634D01*
X107271900Y-118772559D01*
X107408550Y-118889025D01*
X107541604Y-118949002D01*
X107449215Y-118987270D01*
X107345211Y-119056763D01*
X107256763Y-119145211D01*
X107187270Y-119249215D01*
X107139403Y-119364777D01*
X107115000Y-119487458D01*
X107115000Y-120003635D01*
X107071658Y-119898480D01*
X106818251Y-119517071D01*
X106495587Y-119192146D01*
X106115956Y-118936082D01*
X105693819Y-118758632D01*
X105245255Y-118666555D01*
X104787349Y-118663358D01*
X104337543Y-118749164D01*
X103912969Y-118920702D01*
X103529801Y-119171441D01*
X103202631Y-119491829D01*
X102943923Y-119869662D01*
X102763531Y-120290550D01*
X102668324Y-120738461D01*
X102666884Y-120841586D01*
X101751577Y-119148761D01*
X100984781Y-116671641D01*
X100713729Y-114092756D01*
X100948746Y-111510342D01*
X101680883Y-109022755D01*
X102662650Y-107144808D01*
X102661931Y-107196333D01*
X102744594Y-107646727D01*
X102913164Y-108072488D01*
X103161222Y-108457398D01*
X103479318Y-108786796D01*
X103855336Y-109048135D01*
X104274954Y-109231462D01*
X104722189Y-109329793D01*
X105180006Y-109339383D01*
X105630966Y-109259866D01*
X106057893Y-109094272D01*
X106444525Y-108848908D01*
X106776136Y-108533119D01*
X107040094Y-108158935D01*
X107226346Y-107740607D01*
X107327797Y-107294069D01*
X107335100Y-106771041D01*
X107246157Y-106321845D01*
X107071658Y-105898480D01*
X106818251Y-105517071D01*
X106495587Y-105192146D01*
X106115956Y-104936082D01*
X105693819Y-104758632D01*
X105245255Y-104666555D01*
X104787349Y-104663358D01*
X104494777Y-104719170D01*
X104507088Y-104703858D01*
X105422885Y-103935413D01*
X110544192Y-103935413D01*
X110639956Y-104199814D01*
X110929571Y-104340704D01*
X111241108Y-104422384D01*
X111562595Y-104441718D01*
X111881675Y-104397961D01*
X112186088Y-104292795D01*
X112360044Y-104199814D01*
X112455808Y-103935413D01*
X111500000Y-102979605D01*
X110544192Y-103935413D01*
X105422885Y-103935413D01*
X106493512Y-103037051D01*
X106810846Y-102862595D01*
X109858282Y-102862595D01*
X109902039Y-103181675D01*
X110007205Y-103486088D01*
X110100186Y-103660044D01*
X110364587Y-103755808D01*
X111320395Y-102800000D01*
X111679605Y-102800000D01*
X112635413Y-103755808D01*
X112899814Y-103660044D01*
X113040704Y-103370429D01*
X113122384Y-103058892D01*
X113141718Y-102737405D01*
X113097961Y-102418325D01*
X112992795Y-102113912D01*
X112899814Y-101939956D01*
X112635413Y-101844192D01*
X111679605Y-102800000D01*
X111320395Y-102800000D01*
X110364587Y-101844192D01*
X110100186Y-101939956D01*
X109959296Y-102229571D01*
X109877616Y-102541108D01*
X109858282Y-102862595D01*
X106810846Y-102862595D01*
X108765856Y-101787819D01*
X109154332Y-101664587D01*
X110544192Y-101664587D01*
X111500000Y-102620395D01*
X112455808Y-101664587D01*
X112360044Y-101400186D01*
X112070429Y-101259296D01*
X111758892Y-101177616D01*
X111437405Y-101158282D01*
X111118325Y-101202039D01*
X110813912Y-101307205D01*
X110639956Y-101400186D01*
X110544192Y-101664587D01*
X109154332Y-101664587D01*
X111237561Y-101003749D01*
X113846690Y-100711088D01*
X114002524Y-100710000D01*
X116909132Y-100710000D01*
X116405132Y-101214000D01*
X116405132Y-101214000D01*
G37*
X116405132Y-101214000D02*
X116171731Y-101166089D01*
X115851099Y-101163851D01*
X115536138Y-101223933D01*
X115238846Y-101344046D01*
X114970546Y-101519617D01*
X114741457Y-101743957D01*
X114560306Y-102008522D01*
X114433993Y-102303233D01*
X114367328Y-102616866D01*
X114362851Y-102937475D01*
X114420733Y-103252848D01*
X114538768Y-103550971D01*
X114712461Y-103820491D01*
X114935197Y-104051140D01*
X115198490Y-104234133D01*
X115492313Y-104362501D01*
X115805473Y-104431354D01*
X116126043Y-104438069D01*
X116441811Y-104382390D01*
X116740752Y-104266439D01*
X117011477Y-104094632D01*
X117243676Y-103873512D01*
X117428503Y-103611503D01*
X117558919Y-103318583D01*
X117565000Y-103291817D01*
X117565000Y-103754131D01*
X116154152Y-105164980D01*
X111911477Y-105164981D01*
X111834685Y-105172510D01*
X111757877Y-105179230D01*
X111753663Y-105180454D01*
X111749291Y-105180883D01*
X111675410Y-105203189D01*
X111601384Y-105224696D01*
X111597488Y-105226715D01*
X111593283Y-105227985D01*
X111525145Y-105264215D01*
X111456703Y-105299692D01*
X111453273Y-105302430D01*
X111449395Y-105304492D01*
X111389608Y-105353253D01*
X111329343Y-105401361D01*
X111323238Y-105407382D01*
X111323107Y-105407489D01*
X111323007Y-105407610D01*
X111321043Y-105409547D01*
X106705591Y-110024999D01*
X104060001Y-110024999D01*
X103983209Y-110032528D01*
X103906401Y-110039248D01*
X103902187Y-110040472D01*
X103897815Y-110040901D01*
X103823934Y-110063207D01*
X103749908Y-110084714D01*
X103746012Y-110086733D01*
X103741807Y-110088003D01*
X103673708Y-110124212D01*
X103605227Y-110159709D01*
X103601794Y-110162450D01*
X103597919Y-110164510D01*
X103538135Y-110213268D01*
X103477868Y-110261379D01*
X103471763Y-110267399D01*
X103471631Y-110267507D01*
X103471530Y-110267630D01*
X103469567Y-110269565D01*
X103080430Y-110658702D01*
X102921228Y-110626023D01*
X102620206Y-110623921D01*
X102324509Y-110680328D01*
X102045400Y-110793096D01*
X101793509Y-110957928D01*
X101578432Y-111168547D01*
X101408361Y-111416930D01*
X101289773Y-111693617D01*
X101227186Y-111988067D01*
X101222983Y-112289067D01*
X101277324Y-112585150D01*
X101388140Y-112865040D01*
X101551210Y-113118075D01*
X101637611Y-113207546D01*
X101587366Y-113223106D01*
X101437441Y-113321900D01*
X101320975Y-113458550D01*
X101247190Y-113622237D01*
X101221928Y-113800000D01*
X101221928Y-115600000D01*
X101229992Y-115701121D01*
X101283106Y-115872634D01*
X101381900Y-116022559D01*
X101518550Y-116139025D01*
X101682237Y-116212810D01*
X101860000Y-116238072D01*
X101963791Y-116238072D01*
X101984715Y-116310092D01*
X101986734Y-116313986D01*
X101988004Y-116318194D01*
X102024223Y-116386311D01*
X102059710Y-116454774D01*
X102062451Y-116458207D01*
X102064511Y-116462082D01*
X102113269Y-116521866D01*
X102161380Y-116582133D01*
X102167400Y-116588238D01*
X102167508Y-116588370D01*
X102167631Y-116588471D01*
X102169566Y-116590434D01*
X103769566Y-118190434D01*
X103829182Y-118239404D01*
X103888253Y-118288970D01*
X103892096Y-118291083D01*
X103895493Y-118293873D01*
X103963526Y-118330352D01*
X104031059Y-118367478D01*
X104035242Y-118368805D01*
X104039114Y-118370881D01*
X104112921Y-118393446D01*
X104186394Y-118416753D01*
X104190754Y-118417242D01*
X104194957Y-118418527D01*
X104271756Y-118426328D01*
X104348342Y-118434919D01*
X104356914Y-118434979D01*
X104357086Y-118434996D01*
X104357246Y-118434981D01*
X104360000Y-118435000D01*
X107118706Y-118435000D01*
X107119992Y-118451121D01*
X107173106Y-118622634D01*
X107271900Y-118772559D01*
X107408550Y-118889025D01*
X107541604Y-118949002D01*
X107449215Y-118987270D01*
X107345211Y-119056763D01*
X107256763Y-119145211D01*
X107187270Y-119249215D01*
X107139403Y-119364777D01*
X107115000Y-119487458D01*
X107115000Y-120003635D01*
X107071658Y-119898480D01*
X106818251Y-119517071D01*
X106495587Y-119192146D01*
X106115956Y-118936082D01*
X105693819Y-118758632D01*
X105245255Y-118666555D01*
X104787349Y-118663358D01*
X104337543Y-118749164D01*
X103912969Y-118920702D01*
X103529801Y-119171441D01*
X103202631Y-119491829D01*
X102943923Y-119869662D01*
X102763531Y-120290550D01*
X102668324Y-120738461D01*
X102666884Y-120841586D01*
X101751577Y-119148761D01*
X100984781Y-116671641D01*
X100713729Y-114092756D01*
X100948746Y-111510342D01*
X101680883Y-109022755D01*
X102662650Y-107144808D01*
X102661931Y-107196333D01*
X102744594Y-107646727D01*
X102913164Y-108072488D01*
X103161222Y-108457398D01*
X103479318Y-108786796D01*
X103855336Y-109048135D01*
X104274954Y-109231462D01*
X104722189Y-109329793D01*
X105180006Y-109339383D01*
X105630966Y-109259866D01*
X106057893Y-109094272D01*
X106444525Y-108848908D01*
X106776136Y-108533119D01*
X107040094Y-108158935D01*
X107226346Y-107740607D01*
X107327797Y-107294069D01*
X107335100Y-106771041D01*
X107246157Y-106321845D01*
X107071658Y-105898480D01*
X106818251Y-105517071D01*
X106495587Y-105192146D01*
X106115956Y-104936082D01*
X105693819Y-104758632D01*
X105245255Y-104666555D01*
X104787349Y-104663358D01*
X104494777Y-104719170D01*
X104507088Y-104703858D01*
X105422885Y-103935413D01*
X110544192Y-103935413D01*
X110639956Y-104199814D01*
X110929571Y-104340704D01*
X111241108Y-104422384D01*
X111562595Y-104441718D01*
X111881675Y-104397961D01*
X112186088Y-104292795D01*
X112360044Y-104199814D01*
X112455808Y-103935413D01*
X111500000Y-102979605D01*
X110544192Y-103935413D01*
X105422885Y-103935413D01*
X106493512Y-103037051D01*
X106810846Y-102862595D01*
X109858282Y-102862595D01*
X109902039Y-103181675D01*
X110007205Y-103486088D01*
X110100186Y-103660044D01*
X110364587Y-103755808D01*
X111320395Y-102800000D01*
X111679605Y-102800000D01*
X112635413Y-103755808D01*
X112899814Y-103660044D01*
X113040704Y-103370429D01*
X113122384Y-103058892D01*
X113141718Y-102737405D01*
X113097961Y-102418325D01*
X112992795Y-102113912D01*
X112899814Y-101939956D01*
X112635413Y-101844192D01*
X111679605Y-102800000D01*
X111320395Y-102800000D01*
X110364587Y-101844192D01*
X110100186Y-101939956D01*
X109959296Y-102229571D01*
X109877616Y-102541108D01*
X109858282Y-102862595D01*
X106810846Y-102862595D01*
X108765856Y-101787819D01*
X109154332Y-101664587D01*
X110544192Y-101664587D01*
X111500000Y-102620395D01*
X112455808Y-101664587D01*
X112360044Y-101400186D01*
X112070429Y-101259296D01*
X111758892Y-101177616D01*
X111437405Y-101158282D01*
X111118325Y-101202039D01*
X110813912Y-101307205D01*
X110639956Y-101400186D01*
X110544192Y-101664587D01*
X109154332Y-101664587D01*
X111237561Y-101003749D01*
X113846690Y-100711088D01*
X114002524Y-100710000D01*
X116909132Y-100710000D01*
X116405132Y-101214000D01*
G36*
X120740000Y-104488072D02*
X121340000Y-104488072D01*
X121441121Y-104480008D01*
X121475000Y-104469516D01*
X121475000Y-104546002D01*
X121482525Y-104622749D01*
X121489249Y-104699602D01*
X121490473Y-104703816D01*
X121490902Y-104708188D01*
X121513212Y-104782083D01*
X121534715Y-104856094D01*
X121536734Y-104859988D01*
X121538004Y-104864196D01*
X121574223Y-104932313D01*
X121609710Y-105000776D01*
X121612451Y-105004209D01*
X121614511Y-105008084D01*
X121663269Y-105067868D01*
X121711380Y-105128135D01*
X121717400Y-105134240D01*
X121717508Y-105134372D01*
X121717631Y-105134473D01*
X121719566Y-105136436D01*
X122973564Y-106390434D01*
X123033180Y-106439404D01*
X123092251Y-106488970D01*
X123096094Y-106491083D01*
X123099491Y-106493873D01*
X123167524Y-106530352D01*
X123235057Y-106567478D01*
X123239240Y-106568805D01*
X123243112Y-106570881D01*
X123316891Y-106593437D01*
X123390392Y-106616753D01*
X123394756Y-106617242D01*
X123398954Y-106618526D01*
X123475714Y-106626324D01*
X123552340Y-106634919D01*
X123560911Y-106634979D01*
X123561083Y-106634996D01*
X123561243Y-106634981D01*
X123563998Y-106635000D01*
X128000000Y-106635000D01*
X128076747Y-106627475D01*
X128153600Y-106620751D01*
X128157814Y-106619527D01*
X128162186Y-106619098D01*
X128236081Y-106596788D01*
X128310092Y-106575285D01*
X128313986Y-106573266D01*
X128318194Y-106571996D01*
X128386311Y-106535777D01*
X128454774Y-106500290D01*
X128458207Y-106497549D01*
X128462082Y-106495489D01*
X128521866Y-106446731D01*
X128582133Y-106398620D01*
X128588238Y-106392600D01*
X128588370Y-106392492D01*
X128588471Y-106392369D01*
X128590434Y-106390434D01*
X130111928Y-104868940D01*
X130111928Y-105750000D01*
X130119992Y-105851121D01*
X130173106Y-106022634D01*
X130191823Y-106051038D01*
X130137190Y-106172237D01*
X130111928Y-106350000D01*
X130111928Y-107850000D01*
X130119992Y-107951121D01*
X130173106Y-108122634D01*
X130271900Y-108272559D01*
X130408550Y-108389025D01*
X130541604Y-108449002D01*
X130449215Y-108487270D01*
X130345211Y-108556763D01*
X130256763Y-108645211D01*
X130187270Y-108749215D01*
X130139403Y-108864777D01*
X130115000Y-108987458D01*
X130115000Y-109514250D01*
X130273750Y-109673000D01*
X131273000Y-109673000D01*
X131273000Y-109653000D01*
X131527000Y-109653000D01*
X131527000Y-109673000D01*
X131547000Y-109673000D01*
X131547000Y-109927000D01*
X131527000Y-109927000D01*
X131527000Y-109947000D01*
X131273000Y-109947000D01*
X131273000Y-109927000D01*
X130273750Y-109927000D01*
X130115000Y-110085750D01*
X130115000Y-110612542D01*
X130139403Y-110735223D01*
X130187270Y-110850785D01*
X130256763Y-110954789D01*
X130345211Y-111043237D01*
X130449215Y-111112730D01*
X130564777Y-111160597D01*
X130687458Y-111185000D01*
X131114250Y-111185000D01*
X131211071Y-111088179D01*
X131206573Y-111102893D01*
X131183257Y-111176394D01*
X131182768Y-111180758D01*
X131181484Y-111184956D01*
X131173686Y-111261716D01*
X131165091Y-111338342D01*
X131165031Y-111346913D01*
X131165014Y-111347085D01*
X131165029Y-111347245D01*
X131165010Y-111350000D01*
X131165010Y-116700461D01*
X131126890Y-116577366D01*
X131028096Y-116427441D01*
X130891446Y-116310975D01*
X130727759Y-116237190D01*
X130549996Y-116211928D01*
X130159504Y-116211928D01*
X130272634Y-116176894D01*
X130422559Y-116078100D01*
X130539025Y-115941450D01*
X130612810Y-115777763D01*
X130638072Y-115600000D01*
X130638072Y-113800000D01*
X130630008Y-113698879D01*
X130576894Y-113527366D01*
X130478100Y-113377441D01*
X130341450Y-113260975D01*
X130224963Y-113208466D01*
X130267610Y-113167854D01*
X130441132Y-112921869D01*
X130563572Y-112646866D01*
X130630265Y-112353317D01*
X130635066Y-112009486D01*
X130576595Y-111714190D01*
X130461882Y-111435874D01*
X130295295Y-111185141D01*
X130083180Y-110971540D01*
X129833616Y-110803206D01*
X129556108Y-110686553D01*
X129261228Y-110626023D01*
X128960206Y-110623921D01*
X128779299Y-110658431D01*
X127950348Y-109829480D01*
X127990785Y-109812730D01*
X128094789Y-109743237D01*
X128183237Y-109654789D01*
X128252730Y-109550785D01*
X128300597Y-109435223D01*
X128325000Y-109312542D01*
X128325000Y-108785750D01*
X128166250Y-108627000D01*
X127517000Y-108627000D01*
X127517000Y-108647000D01*
X127263000Y-108647000D01*
X127263000Y-108627000D01*
X127243000Y-108627000D01*
X127243000Y-108373000D01*
X127263000Y-108373000D01*
X127263000Y-107273750D01*
X127517000Y-107273750D01*
X127517000Y-108373000D01*
X128166250Y-108373000D01*
X128325000Y-108214250D01*
X128325000Y-107687458D01*
X128300597Y-107564777D01*
X128252730Y-107449215D01*
X128183237Y-107345211D01*
X128094789Y-107256763D01*
X127990785Y-107187270D01*
X127875223Y-107139403D01*
X127752542Y-107115000D01*
X127675750Y-107115000D01*
X127517000Y-107273750D01*
X127263000Y-107273750D01*
X127104250Y-107115000D01*
X127027458Y-107115000D01*
X126904777Y-107139403D01*
X126789215Y-107187270D01*
X126756845Y-107208899D01*
X126597763Y-107137190D01*
X126420000Y-107111928D01*
X125820000Y-107111928D01*
X125718879Y-107119992D01*
X125547366Y-107173106D01*
X125490528Y-107210560D01*
X125327763Y-107137190D01*
X125150000Y-107111928D01*
X124550000Y-107111928D01*
X124448879Y-107119992D01*
X124277366Y-107173106D01*
X124220528Y-107210560D01*
X124057763Y-107137190D01*
X123880000Y-107111928D01*
X123280000Y-107111928D01*
X123178879Y-107119992D01*
X123007366Y-107173106D01*
X122950528Y-107210560D01*
X122787763Y-107137190D01*
X122610000Y-107111928D01*
X122010000Y-107111928D01*
X121908879Y-107119992D01*
X121737366Y-107173106D01*
X121680528Y-107210560D01*
X121517763Y-107137190D01*
X121340000Y-107111928D01*
X120740000Y-107111928D01*
X120638879Y-107119992D01*
X120467366Y-107173106D01*
X120410528Y-107210560D01*
X120247763Y-107137190D01*
X120070000Y-107111928D01*
X119470000Y-107111928D01*
X119368879Y-107119992D01*
X119197366Y-107173106D01*
X119047441Y-107271900D01*
X119036088Y-107285220D01*
X118540868Y-106790000D01*
X120360434Y-104970434D01*
X120409404Y-104910818D01*
X120458970Y-104851747D01*
X120461083Y-104847904D01*
X120463873Y-104844507D01*
X120500352Y-104776474D01*
X120537478Y-104708941D01*
X120538805Y-104704758D01*
X120540881Y-104700886D01*
X120563437Y-104627107D01*
X120586753Y-104553606D01*
X120587242Y-104549242D01*
X120588526Y-104545044D01*
X120596324Y-104468284D01*
X120596393Y-104467664D01*
X120740000Y-104488072D01*
X120740000Y-104488072D01*
G37*
X120740000Y-104488072D02*
X121340000Y-104488072D01*
X121441121Y-104480008D01*
X121475000Y-104469516D01*
X121475000Y-104546002D01*
X121482525Y-104622749D01*
X121489249Y-104699602D01*
X121490473Y-104703816D01*
X121490902Y-104708188D01*
X121513212Y-104782083D01*
X121534715Y-104856094D01*
X121536734Y-104859988D01*
X121538004Y-104864196D01*
X121574223Y-104932313D01*
X121609710Y-105000776D01*
X121612451Y-105004209D01*
X121614511Y-105008084D01*
X121663269Y-105067868D01*
X121711380Y-105128135D01*
X121717400Y-105134240D01*
X121717508Y-105134372D01*
X121717631Y-105134473D01*
X121719566Y-105136436D01*
X122973564Y-106390434D01*
X123033180Y-106439404D01*
X123092251Y-106488970D01*
X123096094Y-106491083D01*
X123099491Y-106493873D01*
X123167524Y-106530352D01*
X123235057Y-106567478D01*
X123239240Y-106568805D01*
X123243112Y-106570881D01*
X123316891Y-106593437D01*
X123390392Y-106616753D01*
X123394756Y-106617242D01*
X123398954Y-106618526D01*
X123475714Y-106626324D01*
X123552340Y-106634919D01*
X123560911Y-106634979D01*
X123561083Y-106634996D01*
X123561243Y-106634981D01*
X123563998Y-106635000D01*
X128000000Y-106635000D01*
X128076747Y-106627475D01*
X128153600Y-106620751D01*
X128157814Y-106619527D01*
X128162186Y-106619098D01*
X128236081Y-106596788D01*
X128310092Y-106575285D01*
X128313986Y-106573266D01*
X128318194Y-106571996D01*
X128386311Y-106535777D01*
X128454774Y-106500290D01*
X128458207Y-106497549D01*
X128462082Y-106495489D01*
X128521866Y-106446731D01*
X128582133Y-106398620D01*
X128588238Y-106392600D01*
X128588370Y-106392492D01*
X128588471Y-106392369D01*
X128590434Y-106390434D01*
X130111928Y-104868940D01*
X130111928Y-105750000D01*
X130119992Y-105851121D01*
X130173106Y-106022634D01*
X130191823Y-106051038D01*
X130137190Y-106172237D01*
X130111928Y-106350000D01*
X130111928Y-107850000D01*
X130119992Y-107951121D01*
X130173106Y-108122634D01*
X130271900Y-108272559D01*
X130408550Y-108389025D01*
X130541604Y-108449002D01*
X130449215Y-108487270D01*
X130345211Y-108556763D01*
X130256763Y-108645211D01*
X130187270Y-108749215D01*
X130139403Y-108864777D01*
X130115000Y-108987458D01*
X130115000Y-109514250D01*
X130273750Y-109673000D01*
X131273000Y-109673000D01*
X131273000Y-109653000D01*
X131527000Y-109653000D01*
X131527000Y-109673000D01*
X131547000Y-109673000D01*
X131547000Y-109927000D01*
X131527000Y-109927000D01*
X131527000Y-109947000D01*
X131273000Y-109947000D01*
X131273000Y-109927000D01*
X130273750Y-109927000D01*
X130115000Y-110085750D01*
X130115000Y-110612542D01*
X130139403Y-110735223D01*
X130187270Y-110850785D01*
X130256763Y-110954789D01*
X130345211Y-111043237D01*
X130449215Y-111112730D01*
X130564777Y-111160597D01*
X130687458Y-111185000D01*
X131114250Y-111185000D01*
X131211071Y-111088179D01*
X131206573Y-111102893D01*
X131183257Y-111176394D01*
X131182768Y-111180758D01*
X131181484Y-111184956D01*
X131173686Y-111261716D01*
X131165091Y-111338342D01*
X131165031Y-111346913D01*
X131165014Y-111347085D01*
X131165029Y-111347245D01*
X131165010Y-111350000D01*
X131165010Y-116700461D01*
X131126890Y-116577366D01*
X131028096Y-116427441D01*
X130891446Y-116310975D01*
X130727759Y-116237190D01*
X130549996Y-116211928D01*
X130159504Y-116211928D01*
X130272634Y-116176894D01*
X130422559Y-116078100D01*
X130539025Y-115941450D01*
X130612810Y-115777763D01*
X130638072Y-115600000D01*
X130638072Y-113800000D01*
X130630008Y-113698879D01*
X130576894Y-113527366D01*
X130478100Y-113377441D01*
X130341450Y-113260975D01*
X130224963Y-113208466D01*
X130267610Y-113167854D01*
X130441132Y-112921869D01*
X130563572Y-112646866D01*
X130630265Y-112353317D01*
X130635066Y-112009486D01*
X130576595Y-111714190D01*
X130461882Y-111435874D01*
X130295295Y-111185141D01*
X130083180Y-110971540D01*
X129833616Y-110803206D01*
X129556108Y-110686553D01*
X129261228Y-110626023D01*
X128960206Y-110623921D01*
X128779299Y-110658431D01*
X127950348Y-109829480D01*
X127990785Y-109812730D01*
X128094789Y-109743237D01*
X128183237Y-109654789D01*
X128252730Y-109550785D01*
X128300597Y-109435223D01*
X128325000Y-109312542D01*
X128325000Y-108785750D01*
X128166250Y-108627000D01*
X127517000Y-108627000D01*
X127517000Y-108647000D01*
X127263000Y-108647000D01*
X127263000Y-108627000D01*
X127243000Y-108627000D01*
X127243000Y-108373000D01*
X127263000Y-108373000D01*
X127263000Y-107273750D01*
X127517000Y-107273750D01*
X127517000Y-108373000D01*
X128166250Y-108373000D01*
X128325000Y-108214250D01*
X128325000Y-107687458D01*
X128300597Y-107564777D01*
X128252730Y-107449215D01*
X128183237Y-107345211D01*
X128094789Y-107256763D01*
X127990785Y-107187270D01*
X127875223Y-107139403D01*
X127752542Y-107115000D01*
X127675750Y-107115000D01*
X127517000Y-107273750D01*
X127263000Y-107273750D01*
X127104250Y-107115000D01*
X127027458Y-107115000D01*
X126904777Y-107139403D01*
X126789215Y-107187270D01*
X126756845Y-107208899D01*
X126597763Y-107137190D01*
X126420000Y-107111928D01*
X125820000Y-107111928D01*
X125718879Y-107119992D01*
X125547366Y-107173106D01*
X125490528Y-107210560D01*
X125327763Y-107137190D01*
X125150000Y-107111928D01*
X124550000Y-107111928D01*
X124448879Y-107119992D01*
X124277366Y-107173106D01*
X124220528Y-107210560D01*
X124057763Y-107137190D01*
X123880000Y-107111928D01*
X123280000Y-107111928D01*
X123178879Y-107119992D01*
X123007366Y-107173106D01*
X122950528Y-107210560D01*
X122787763Y-107137190D01*
X122610000Y-107111928D01*
X122010000Y-107111928D01*
X121908879Y-107119992D01*
X121737366Y-107173106D01*
X121680528Y-107210560D01*
X121517763Y-107137190D01*
X121340000Y-107111928D01*
X120740000Y-107111928D01*
X120638879Y-107119992D01*
X120467366Y-107173106D01*
X120410528Y-107210560D01*
X120247763Y-107137190D01*
X120070000Y-107111928D01*
X119470000Y-107111928D01*
X119368879Y-107119992D01*
X119197366Y-107173106D01*
X119047441Y-107271900D01*
X119036088Y-107285220D01*
X118540868Y-106790000D01*
X120360434Y-104970434D01*
X120409404Y-104910818D01*
X120458970Y-104851747D01*
X120461083Y-104847904D01*
X120463873Y-104844507D01*
X120500352Y-104776474D01*
X120537478Y-104708941D01*
X120538805Y-104704758D01*
X120540881Y-104700886D01*
X120563437Y-104627107D01*
X120586753Y-104553606D01*
X120587242Y-104549242D01*
X120588526Y-104545044D01*
X120596324Y-104468284D01*
X120596393Y-104467664D01*
X120740000Y-104488072D01*
G36*
X113101681Y-108945449D02*
X113097961Y-108918325D01*
X112992795Y-108613912D01*
X112899814Y-108439956D01*
X112635413Y-108344192D01*
X111679605Y-109300000D01*
X111693748Y-109314143D01*
X111514143Y-109493748D01*
X111500000Y-109479605D01*
X110544192Y-110435413D01*
X110617406Y-110637555D01*
X110561228Y-110626023D01*
X110260206Y-110623921D01*
X109964509Y-110680328D01*
X109685400Y-110793096D01*
X109433509Y-110957928D01*
X109218432Y-111168547D01*
X109048361Y-111416930D01*
X108929773Y-111693617D01*
X108867186Y-111988067D01*
X108862983Y-112289067D01*
X108917324Y-112585150D01*
X109028140Y-112865040D01*
X109191210Y-113118075D01*
X109277611Y-113207546D01*
X109227366Y-113223106D01*
X109077441Y-113321900D01*
X108960975Y-113458550D01*
X108887190Y-113622237D01*
X108861928Y-113800000D01*
X108861928Y-114481060D01*
X108490434Y-114109566D01*
X108430818Y-114060596D01*
X108371747Y-114011030D01*
X108367904Y-114008917D01*
X108364507Y-114006127D01*
X108296474Y-113969648D01*
X108228941Y-113932522D01*
X108224758Y-113931195D01*
X108220886Y-113929119D01*
X108147107Y-113906563D01*
X108138072Y-113903697D01*
X108138072Y-113800000D01*
X108130008Y-113698879D01*
X108076894Y-113527366D01*
X107978100Y-113377441D01*
X107841450Y-113260975D01*
X107724963Y-113208466D01*
X107767610Y-113167854D01*
X107941132Y-112921869D01*
X108063572Y-112646866D01*
X108130265Y-112353317D01*
X108135066Y-112009486D01*
X108101401Y-111839467D01*
X109993744Y-109947124D01*
X110007205Y-109986088D01*
X110100186Y-110160044D01*
X110364587Y-110255808D01*
X111320395Y-109300000D01*
X111306253Y-109285858D01*
X111485858Y-109106253D01*
X111500000Y-109120395D01*
X112455808Y-108164587D01*
X112360044Y-107900186D01*
X112145199Y-107795669D01*
X112505878Y-107434990D01*
X114612140Y-107434990D01*
X113101681Y-108945449D01*
X113101681Y-108945449D01*
G37*
X113101681Y-108945449D02*
X113097961Y-108918325D01*
X112992795Y-108613912D01*
X112899814Y-108439956D01*
X112635413Y-108344192D01*
X111679605Y-109300000D01*
X111693748Y-109314143D01*
X111514143Y-109493748D01*
X111500000Y-109479605D01*
X110544192Y-110435413D01*
X110617406Y-110637555D01*
X110561228Y-110626023D01*
X110260206Y-110623921D01*
X109964509Y-110680328D01*
X109685400Y-110793096D01*
X109433509Y-110957928D01*
X109218432Y-111168547D01*
X109048361Y-111416930D01*
X108929773Y-111693617D01*
X108867186Y-111988067D01*
X108862983Y-112289067D01*
X108917324Y-112585150D01*
X109028140Y-112865040D01*
X109191210Y-113118075D01*
X109277611Y-113207546D01*
X109227366Y-113223106D01*
X109077441Y-113321900D01*
X108960975Y-113458550D01*
X108887190Y-113622237D01*
X108861928Y-113800000D01*
X108861928Y-114481060D01*
X108490434Y-114109566D01*
X108430818Y-114060596D01*
X108371747Y-114011030D01*
X108367904Y-114008917D01*
X108364507Y-114006127D01*
X108296474Y-113969648D01*
X108228941Y-113932522D01*
X108224758Y-113931195D01*
X108220886Y-113929119D01*
X108147107Y-113906563D01*
X108138072Y-113903697D01*
X108138072Y-113800000D01*
X108130008Y-113698879D01*
X108076894Y-113527366D01*
X107978100Y-113377441D01*
X107841450Y-113260975D01*
X107724963Y-113208466D01*
X107767610Y-113167854D01*
X107941132Y-112921869D01*
X108063572Y-112646866D01*
X108130265Y-112353317D01*
X108135066Y-112009486D01*
X108101401Y-111839467D01*
X109993744Y-109947124D01*
X110007205Y-109986088D01*
X110100186Y-110160044D01*
X110364587Y-110255808D01*
X111320395Y-109300000D01*
X111306253Y-109285858D01*
X111485858Y-109106253D01*
X111500000Y-109120395D01*
X112455808Y-108164587D01*
X112360044Y-107900186D01*
X112145199Y-107795669D01*
X112505878Y-107434990D01*
X114612140Y-107434990D01*
X113101681Y-108945449D01*
M02*
